<svg width="822" height="822" viewBox="0 0 822 822" fill="none" xmlns="http://www.w3.org/2000/svg">
<path d="M410.991 822C184.374 822 0 637.626 0 410.991C0 184.356 184.374 0 410.991 0C637.609 0 821.982 184.374 821.982 410.991C821.982 637.609 637.609 821.982 410.991 821.982V822ZM410.991 32.7764C202.433 32.7764 32.7764 202.433 32.7764 410.991C32.7764 619.549 202.433 789.206 410.991 789.206C619.549 789.206 789.206 619.549 789.206 410.991C789.206 202.433 619.549 32.7764 410.991 32.7764Z" fill="#0085CA"/>
<path d="M410.993 751.215C223.399 751.215 70.7695 598.602 70.7695 410.991C70.7695 223.38 223.399 70.7852 410.993 70.7852C598.587 70.7852 751.217 223.398 751.217 411.009C751.217 598.62 598.604 751.232 410.993 751.232V751.215ZM410.993 103.562C241.476 103.562 103.563 241.474 103.563 410.991C103.563 580.508 241.476 718.421 410.993 718.421C580.51 718.421 718.423 580.508 718.423 410.991C718.423 241.474 580.527 103.562 410.993 103.562Z" fill="#FF8200"/>
<path d="M410.993 680.412C262.423 680.412 141.555 559.544 141.555 410.991C141.555 262.439 262.441 141.57 410.993 141.57C559.546 141.57 680.432 262.439 680.432 411.009C680.432 559.579 559.563 680.43 410.993 680.43V680.412ZM410.993 174.347C280.5 174.347 174.331 280.516 174.331 411.009C174.331 541.502 280.5 647.653 410.993 647.653C541.486 647.653 647.655 541.502 647.655 411.009C647.655 280.516 541.486 174.347 410.993 174.347Z" fill="#8031A7"/>
<path d="M410.989 609.645C301.46 609.645 212.336 520.538 212.336 411.009C212.336 301.48 301.46 212.355 410.989 212.355C520.518 212.355 609.625 301.48 609.625 411.009C609.625 520.538 520.518 609.645 410.989 609.645ZM410.989 245.114C319.52 245.114 245.112 319.522 245.112 410.991C245.112 502.461 319.52 576.851 410.989 576.851C502.459 576.851 576.849 502.443 576.849 410.991C576.849 319.539 502.441 245.114 410.989 245.114Z" fill="#78BE20"/>
</svg>
