<?xml version="1.0" encoding="UTF-8"?>
<svg id="a" data-name="Logos" xmlns="http://www.w3.org/2000/svg" viewBox="0 0 1167.08 461.48">
  <g>
    <path d="M583.24,18.16c8.59,4.73,15.35,11.21,20.27,19.45,4.92,8.24,7.39,17.39,7.39,27.43s-2.46,19.22-7.39,27.51c-4.92,8.29-11.68,14.85-20.27,19.67-8.59,4.82-18.12,7.24-28.56,7.24s-19.97-2.41-28.57-7.24c-8.59-4.82-15.35-11.38-20.27-19.67-4.92-8.29-7.39-17.46-7.39-27.51s2.46-19.19,7.39-27.43c4.92-8.24,11.68-14.72,20.27-19.45,8.59-4.72,18.11-7.08,28.57-7.08s19.97,2.36,28.56,7.08ZM537.04,33.91c-5.53,3.17-9.9,7.49-13.11,12.96-3.22,5.48-4.82,11.53-4.82,18.16s1.63,12.71,4.9,18.24c3.26,5.53,7.63,9.9,13.11,13.11,5.47,3.22,11.43,4.82,17.86,4.82s12.21-1.61,17.64-4.82c5.42-3.22,9.72-7.59,12.89-13.11,3.17-5.52,4.75-11.61,4.75-18.24s-1.58-12.68-4.75-18.16c-3.17-5.48-7.46-9.8-12.89-12.96-5.43-3.17-11.31-4.75-17.64-4.75s-12.41,1.58-17.94,4.75Z" fill="#0085ca"/>
    <path d="M617.53,12.43h86.07v17.94h-32.86v87.58h-20.35V30.37h-32.86V12.43h0Z" fill="#0085ca"/>
    <path d="M718.22,12.43h86.07v17.94h-32.86v87.58h-20.35V30.37h-32.86V12.43h0Z" fill="#0085ca"/>
    <path d="M892.01,117.94l-9.35-22.31h-51.55l-9.35,22.31h-20.95l46.27-105.52h20.95l45.67,105.52h-21.71.02ZM838.35,78.3h37.08l-18.39-44.32-18.69,44.32Z" fill="#0085ca"/>
    <path d="M1043.8,12.43h20.95l-35.72,105.52h-20.95l-24.12-80.04-24.57,80.04h-20.65l-35.57-105.52h21.71l24.87,83.66,24.72-83.66h19.9l24.87,83.96,24.57-83.96h-.01Z" fill="#0085ca"/>
    <path d="M1145.39,117.94l-9.35-22.31h-51.55l-9.35,22.31h-20.95l46.27-105.52h20.95l45.67,105.52h-21.71.02ZM1091.73,78.3h37.08l-18.39-44.32-18.69,44.32Z" fill="#0085ca"/>
    <path d="M580.22,184.58c6.48,4.72,9.72,11.15,9.72,19.3,0,5.83-1.64,10.83-4.9,15-3.27,4.17-7.76,6.96-13.49,8.37,7.03,1.31,12.53,4.32,16.5,9.04s5.96,10.6,5.96,17.64c0,9.04-3.49,16.15-10.48,21.33-6.98,5.18-16.5,7.76-28.56,7.76h-48.23v-105.52h46.88c11.25,0,20.12,2.36,26.61,7.08h-.01ZM564.85,217.14c2.96-2.31,4.45-5.53,4.45-9.65s-1.48-7.13-4.45-9.35c-2.97-2.21-7.06-3.26-12.29-3.17h-25.62v25.63h25.62c5.22,0,9.32-1.16,12.29-3.47h0ZM567.64,261.91c3.62-2.51,5.42-6.03,5.42-10.55s-1.81-7.71-5.42-10.17c-3.62-2.46-8.65-3.64-15.07-3.54h-25.62v27.89h25.62c6.43.1,11.46-1.1,15.07-3.62h0Z" fill="#0085ca"/>
    <path d="M693.12,183.22c8.59,4.73,15.35,11.21,20.27,19.45,4.92,8.24,7.39,17.39,7.39,27.43s-2.46,19.22-7.39,27.51c-4.92,8.29-11.68,14.85-20.27,19.67s-18.12,7.24-28.56,7.24-19.97-2.41-28.57-7.24c-8.59-4.82-15.35-11.38-20.27-19.67-4.92-8.29-7.39-17.46-7.39-27.51s2.46-19.19,7.39-27.43c4.92-8.24,11.68-14.72,20.27-19.45,8.59-4.72,18.11-7.08,28.57-7.08s19.97,2.36,28.56,7.08ZM646.92,198.97c-5.53,3.17-9.9,7.49-13.11,12.96-3.22,5.48-4.82,11.53-4.82,18.16s1.63,12.71,4.9,18.24c3.26,5.53,7.63,9.9,13.11,13.11,5.47,3.22,11.43,4.82,17.86,4.82s12.21-1.61,17.64-4.82c5.43-3.22,9.72-7.59,12.89-13.11,3.17-5.52,4.75-11.61,4.75-18.24s-1.58-12.68-4.75-18.16-7.46-9.8-12.89-12.96c-5.43-3.17-11.31-4.75-17.64-4.75s-12.41,1.58-17.94,4.75Z" fill="#0085ca"/>
    <path d="M816.95,283.01l-9.35-22.31h-51.55l-9.35,22.31h-20.95l46.27-105.52h20.95l45.67,105.52h-21.71.02ZM763.29,243.37h37.08l-18.39-44.32-18.69,44.32Z" fill="#0085ca"/>
    <path d="M923.51,283.01l-18.24-31.2c-.81.1-2.06.15-3.77.15h-23.81v31.05h-20.2v-105.52h44.01c13.67,0,24.22,3.17,31.66,9.5,7.43,6.33,11.15,15.28,11.15,26.83,0,8.24-1.79,15.28-5.35,21.1-3.57,5.83-8.77,10.2-15.6,13.11l23.21,34.97h-23.06ZM877.69,234.17h23.81c7.64,0,13.47-1.66,17.49-4.97,4.02-3.32,6.03-8.24,6.03-14.77s-2.01-11.25-6.03-14.47c-4.02-3.21-9.85-4.82-17.49-4.82h-23.81v39.04h0Z" fill="#0085ca"/>
    <path d="M1041.69,184.2c8.34,4.47,14.87,10.73,19.59,18.77,4.72,8.04,7.08,17.13,7.08,27.28s-2.39,19.22-7.16,27.21-11.38,14.24-19.82,18.77c-8.44,4.52-18.04,6.78-28.79,6.78h-43.11v-105.52h43.86c10.55,0,20,2.24,28.34,6.71h.01ZM1031.21,260.78c5.17-2.96,9.22-7.08,12.13-12.36s4.37-11.28,4.37-18.01-1.51-12.79-4.52-18.16c-3.01-5.38-7.16-9.55-12.44-12.51-5.27-2.96-11.18-4.45-17.71-4.45h-23.36v69.94h24.12c6.43,0,12.23-1.48,17.41-4.45h0Z" fill="#0085ca"/>
    <path d="M586.93,342.55h86.07v17.94h-32.86v87.58h-20.35v-87.58h-32.86v-17.94h0Z" fill="#0085ca"/>
    <path d="M759.37,448.07l-18.24-31.2c-.81.1-2.06.15-3.77.15h-23.81v31.05h-20.2v-105.52h44.01c13.67,0,24.22,3.17,31.66,9.5,7.43,6.33,11.15,15.27,11.15,26.83,0,8.24-1.79,15.28-5.35,21.1-3.57,5.83-8.77,10.2-15.6,13.11l23.21,34.97h-23.06ZM713.54,399.23h23.81c7.64,0,13.47-1.66,17.49-4.97,4.02-3.32,6.03-8.24,6.03-14.77s-2.01-11.25-6.03-14.47c-4.02-3.21-9.85-4.82-17.49-4.82h-23.81v39.04h0Z" fill="#0085ca"/>
    <path d="M889.15,448.07l-9.35-22.31h-51.55l-9.35,22.31h-20.95l46.27-105.52h20.95l45.67,105.52h-21.71.02ZM835.48,408.43h37.08l-18.39-44.32-18.69,44.32Z" fill="#0085ca"/>
    <path d="M999.63,349.26c8.34,4.47,14.87,10.73,19.59,18.77,4.72,8.04,7.08,17.14,7.08,27.28s-2.39,19.22-7.16,27.21c-4.77,7.99-11.38,14.24-19.82,18.77-8.44,4.52-18.04,6.78-28.79,6.78h-43.11v-105.52h43.86c10.55,0,20,2.24,28.34,6.71h.01ZM989.16,425.84c5.17-2.96,9.22-7.08,12.13-12.36,2.91-5.28,4.37-11.28,4.37-18.01s-1.51-12.79-4.52-18.16c-3.01-5.38-7.16-9.55-12.44-12.51-5.27-2.96-11.18-4.45-17.71-4.45h-23.36v69.94h24.12c6.43,0,12.23-1.48,17.41-4.45h0Z" fill="#0085ca"/>
    <path d="M1046.96,342.55h77.33v17.64h-57.13v26.08h51.25v17.63h-51.25v26.53h58.94v17.64h-79.14v-105.52h0Z" fill="#0085ca"/>
  </g>
  <path d="M230.74,461.48C103.51,461.48,0,357.97,0,230.74S103.51,0,230.74,0s230.74,103.51,230.74,230.74-103.51,230.74-230.74,230.74ZM230.74,18.4C113.65,18.4,18.4,113.65,18.4,230.74s95.25,212.34,212.34,212.34,212.34-95.25,212.34-212.34S347.83,18.4,230.74,18.4h0Z" fill="#0085ca"/>
  <path d="M230.74,421.74c-105.32,0-191-85.68-191-191S125.42,39.74,230.74,39.74s191,85.68,191,191-85.68,191-191,191ZM230.74,58.14c-95.18,0-172.6,77.43-172.6,172.6s77.43,172.6,172.6,172.6,172.6-77.43,172.6-172.6S325.91,58.14,230.74,58.14h0Z" fill="#ff8200"/>
  <path d="M230.74,382c-83.41,0-151.27-67.85-151.27-151.26S147.33,79.47,230.74,79.47s151.27,67.86,151.27,151.27-67.86,151.26-151.27,151.26ZM230.74,97.88c-73.26,0-132.86,59.6-132.86,132.86s59.6,132.86,132.86,132.86,132.86-59.6,132.86-132.86-59.6-132.86-132.86-132.86Z" fill="#8031a7"/>
  <path d="M230.74,342.26c-61.49,0-111.53-50.03-111.53-111.52s50.04-111.53,111.53-111.53,111.52,50.04,111.52,111.53-50.03,111.52-111.52,111.52ZM230.74,137.61c-51.35,0-93.13,41.78-93.13,93.13s41.78,93.12,93.13,93.12,93.12-41.77,93.12-93.12-41.77-93.13-93.12-93.13Z" fill="#78be20"/>
  <g>
    <path d="M510.04,407.4c2.29-4.17,5.44-7.45,9.44-9.84s8.44-3.58,13.31-3.58,9.33,1.2,13.35,3.58c4.02,2.39,7.21,5.67,9.55,9.84,2.34,4.17,3.51,8.79,3.51,13.86s-1.17,9.69-3.51,13.86-5.52,7.45-9.55,9.84c-4.02,2.39-8.47,3.58-13.35,3.58s-9.31-1.19-13.31-3.58-7.14-5.67-9.44-9.84c-2.29-4.17-3.44-8.79-3.44-13.86s1.15-9.69,3.44-13.86ZM517.69,429.82c1.54,2.68,3.63,4.8,6.29,6.37,2.66,1.56,5.59,2.34,8.81,2.34s6.17-.79,8.85-2.38,4.8-3.71,6.37-6.37c1.56-2.66,2.34-5.55,2.34-8.67s-.78-5.92-2.34-8.56-3.68-4.72-6.37-6.25c-2.68-1.54-5.63-2.31-8.85-2.31s-6.16.77-8.81,2.31-4.76,3.62-6.29,6.25c-1.53,2.63-2.3,5.49-2.3,8.56s.77,6.03,2.3,8.71h0Z" fill="#0085ca"/>
    <path d="M507.26,380.96v-35.33l8.56.07v25.45h13.83v-23.19h8.56v23.19h20.26v9.8h-51.21Z" fill="#0085ca"/>
  </g>
</svg>