<svg width="399" height="321" viewBox="0 0 399 321" fill="none" xmlns="http://www.w3.org/2000/svg">
<path d="M372.543 0C271.34 50.9127 220.749 121.479 220.749 211.72C220.749 241.808 230.258 267.373 249.297 288.425C268.326 309.489 290.836 320.01 316.839 320.01C340.045 320.01 359.313 311.919 374.632 295.714C389.951 279.521 397.61 259.618 397.61 236.016C397.61 213.803 389.711 194.258 373.936 177.359C358.149 160.472 338.185 150.634 314.054 147.857C314.054 110.372 342.363 77.7464 399.002 49.9797L372.543 0Z" fill="white"/>
<path fill-rule="evenodd" clip-rule="evenodd" d="M151.098 0C50.3624 50.9127 0 121.479 0 211.72C0 241.808 9.40013 267.373 28.2003 288.425C47.0005 309.489 69.391 320.01 95.3935 320.01C118.6 320.01 137.977 311.919 153.535 295.714C169.082 279.521 176.861 259.618 176.861 236.016C176.861 213.803 168.962 194.258 153.187 177.359C137.4 160.472 117.207 150.634 92.6083 147.857C92.6083 110.372 121.157 77.7464 178.254 49.9797L151.098 0Z" fill="white"/>
</svg>
